HIERARCHY
ROOT joint_Root
{
	OFFSET 0.0 0.0 0.0
	CHANNELS 6 Xposition Yposition Zposition Zrotation Xrotation Yrotation 
	JOINT Hips
	{
		OFFSET -17.1583 93.1646 452.98
		CHANNELS 6 Xposition Yposition Zposition Zrotation Xrotation Yrotation 
		JOINT Spine
		{
			OFFSET 15.7357 0.0 0.0
			CHANNELS 6 Xposition Yposition Zposition Zrotation Xrotation Yrotation 
			JOINT Chest
			{
				OFFSET 8.98455 -0.406207 0.0
				CHANNELS 6 Xposition Yposition Zposition Zrotation Xrotation Yrotation 
				JOINT Neck
				{
					OFFSET 16.3773 0.0 0.0
					CHANNELS 6 Xposition Yposition Zposition Zrotation Xrotation Yrotation 
					JOINT Head
					{
						OFFSET 6.45672 0.0 0.0
						CHANNELS 6 Xposition Yposition Zposition Zrotation Xrotation Yrotation 
						End Site
						{
							OFFSET 0.0 0.0 0.0
						}
					}
				}
				JOINT Shoulder_L
				{
					OFFSET 12.9942 -0.242716 4.98039
					CHANNELS 6 Xposition Yposition Zposition Zrotation Xrotation Yrotation 
					JOINT UpperArm_L
					{
						OFFSET 5.34809 0.0 0.0
						CHANNELS 6 Xposition Yposition Zposition Zrotation Xrotation Yrotation 
						JOINT LowerArm_L
						{
							OFFSET 24.3286 1.87007e-05 0.0
							CHANNELS 6 Xposition Yposition Zposition Zrotation Xrotation Yrotation 
							JOINT Hand_L
							{
								OFFSET 22.2916 0.0 0.0
								CHANNELS 6 Xposition Yposition Zposition Zrotation Xrotation Yrotation 
								End Site
								{
									OFFSET 0.0 0.0 0.0
								}
							}
						}
					}
				}
				JOINT Shoulder_R
				{
					OFFSET 12.9945 -0.242716 -4.98039
					CHANNELS 6 Xposition Yposition Zposition Zrotation Xrotation Yrotation 
					JOINT UpperArm_R
					{
						OFFSET -5.34813 0.0 0.0
						CHANNELS 6 Xposition Yposition Zposition Zrotation Xrotation Yrotation 
						JOINT LowerArm_R
						{
							OFFSET -24.3289 0.000322201 0.0
							CHANNELS 6 Xposition Yposition Zposition Zrotation Xrotation Yrotation 
							JOINT Hand_R
							{
								OFFSET -22.2915 -0.000108084 0.0
								CHANNELS 6 Xposition Yposition Zposition Zrotation Xrotation Yrotation 
								End Site
								{
									OFFSET 0.0 0.0 0.0
								}
							}
						}
					}
				}
			}
		}
		JOINT UpperLeg_L
		{
			OFFSET -2.19248 -6.46944 0.0
			CHANNELS 6 Xposition Yposition Zposition Zrotation Xrotation Yrotation 
			JOINT LowerLeg_L
			{
				OFFSET 39.0811 0.0 -1.23785e-05
				CHANNELS 6 Xposition Yposition Zposition Zrotation Xrotation Yrotation 
				JOINT Foot_L
				{
					OFFSET 40.9854 0.0 -1.26872e-05
					CHANNELS 6 Xposition Yposition Zposition Zrotation Xrotation Yrotation 
					JOINT Toes_L
					{
						OFFSET 11.7543 0.0 0.0
						CHANNELS 6 Xposition Yposition Zposition Zrotation Xrotation Yrotation 
						End Site
						{
							OFFSET 0.0 0.0 0.0
						}
					}
				}
			}
		}
		JOINT UpperLeg_R
		{
			OFFSET -2.19251 6.46944 0.0
			CHANNELS 6 Xposition Yposition Zposition Zrotation Xrotation Yrotation 
			JOINT LowerLeg_R
			{
				OFFSET -39.0811 -0.00228153 -0.0401928
				CHANNELS 6 Xposition Yposition Zposition Zrotation Xrotation Yrotation 
				JOINT Foot_R
				{
					OFFSET -40.9854 0.0 0.0
					CHANNELS 6 Xposition Yposition Zposition Zrotation Xrotation Yrotation 
					JOINT Toes_R
					{
						OFFSET -11.7543 0.0 0.0
						CHANNELS 6 Xposition Yposition Zposition Zrotation Xrotation Yrotation 
						End Site
						{
							OFFSET 0.0 0.0 0.0
						}
					}
				}
			}
		}
	}
}
MOTION
Frames:	5
Frame Time:	0.0333333
0.000000 0.000000 0.000000 0.000000 0.000000 -0.000000 -3.994320 92.677500 2.083290 87.399900 0.456170 3.625390 15.735700 0.000005 -0.000001 80.356000 86.585700 -78.673800 8.984550 -0.406207 -0.000000 -1.013030 -1.272560 3.351880 16.377300 -0.000001 -0.000001 1.767700 1.445690 -1.162970 6.456720 -0.000001 -0.000000 4.567820 2.962130 1.898560 12.994200 -0.242716 4.980390 -92.342600 7.522370 -72.646500 5.348090 -0.000007 -0.000001 -74.723200 26.203600 1.350430 24.328600 0.000019 0.000005 11.843900 26.768000 -24.968000 22.291600 -0.000001 0.000005 -2.512220 4.990890 7.512790 12.994500 -0.242716 -4.980390 88.885800 3.762840 -73.492500 -5.348130 -0.000001 -0.000004 -70.326200 28.553900 -4.589820 -24.328900 0.000322 -0.000009 0.699141 2.606870 -15.042500 -22.291500 -0.000108 -0.000004 -7.200260 5.197730 2.772510 -2.192480 -6.469440 -0.000000 -170.408000 -5.847270 2.578580 39.081100 -0.000007 -0.000012 0.006909 -0.023729 16.235300 40.985400 -0.000006 -0.000013 -2.458960 13.651200 -69.649800 11.754300 -0.000000 0.000003 -0.001517 0.190127 -8.863710 -2.192510 6.469440 -0.000001 -179.425000 5.638430 -176.041000 -39.081100 -0.002282 -0.040193 0.053335 -0.191850 14.608700 -40.985400 0.000008 0.000006 -2.013020 3.759660 -70.770600 -11.754300 -0.000006 -0.000006 -0.010522 0.275164 -5.393120
0.000000 0.000000 0.000000 0.000000 0.000000 -0.000000 -3.845310 92.689200 2.136260 87.412900 0.570737 3.516120 15.735700 0.000005 -0.000001 78.353700 86.567600 -76.751200 8.984550 -0.406207 -0.000000 -1.019570 -1.508300 3.190490 16.377300 -0.000001 -0.000001 1.557640 1.579200 -1.363980 6.456720 -0.000001 -0.000000 4.412830 3.154860 1.476500 12.994200 -0.242716 4.980390 -92.360100 7.556020 -72.597700 5.348090 -0.000007 -0.000001 -74.750200 25.113900 1.626380 24.328600 0.000019 0.000005 11.904500 26.574900 -25.231400 22.291600 -0.000001 0.000005 -2.412880 4.992690 7.474210 12.994500 -0.242716 -4.980390 88.690300 4.274290 -72.947400 -5.348130 -0.000001 -0.000004 -67.945300 27.004500 -5.964360 -24.328900 0.000322 -0.000009 1.202140 4.736630 -14.274800 -22.291500 -0.000108 -0.000004 -9.943680 5.228590 1.982120 -2.192480 -6.469440 -0.000000 -170.551000 -5.692820 2.500220 39.081100 -0.000007 -0.000012 0.009052 -0.031149 16.204700 40.985400 -0.000006 -0.000013 -2.362620 13.589400 -69.722800 11.754300 -0.000000 0.000003 -0.001511 0.190042 -8.867190 -2.192510 6.469440 -0.000001 -179.597000 5.854480 -176.009000 -39.081100 -0.002282 -0.040193 0.048103 -0.174141 14.418500 -40.985400 0.000008 0.000006 -2.273140 3.981270 -70.655700 -11.754300 -0.000006 -0.000006 -0.010594 0.275689 -5.371630
0.000000 0.000000 0.000000 0.000000 0.000000 -0.000000 -3.647790 92.701700 2.187850 87.409300 0.604362 3.405210 15.735700 0.000005 -0.000001 75.506200 86.542500 -73.947600 8.984550 -0.406207 -0.000000 -1.044160 -1.850050 3.099290 16.377300 -0.000001 -0.000001 1.444390 1.796460 -1.634640 6.456720 -0.000001 -0.000000 4.243750 3.494650 0.671057 12.994200 -0.242716 4.980390 -92.438300 7.785710 -72.550400 5.348090 -0.000007 -0.000001 -74.718400 23.192400 2.210970 24.328600 0.000019 0.000005 11.891600 25.995800 -25.661500 22.291600 -0.000001 0.000005 -2.604820 4.998520 7.350730 12.994500 -0.242716 -4.980390 88.481600 4.797650 -72.415800 -5.348130 -0.000001 -0.000004 -64.720900 22.953500 -7.829600 -24.328900 0.000322 -0.000009 1.591530 6.933630 -12.971300 -22.291500 -0.000108 -0.000004 -13.207600 5.249180 1.454850 -2.192480 -6.469440 -0.000000 -170.691000 -5.794810 2.402950 39.081100 -0.000007 -0.000012 0.010523 -0.036145 16.233100 40.985400 -0.000006 -0.000013 -2.190380 13.658500 -69.757900 11.754300 -0.000000 0.000003 -0.001452 0.189265 -8.898770 -2.192510 6.469440 -0.000001 -179.803000 6.039530 -175.987000 -39.081100 -0.002282 -0.040193 0.041784 -0.151763 14.218000 -40.985400 0.000008 0.000006 -2.671150 4.212580 -70.464800 -11.754300 -0.000006 -0.000006 -0.010256 0.273205 -5.473250
0.000000 0.000000 0.000000 0.000000 0.000000 -0.000000 -3.381830 92.696500 2.296000 87.404300 0.602061 3.287200 15.735700 0.000005 -0.000001 73.050400 86.556200 -71.568000 8.984550 -0.406207 -0.000000 -1.148490 -2.122820 2.942710 16.377300 -0.000001 -0.000001 1.379610 1.935900 -1.758890 6.456720 -0.000001 -0.000000 4.222300 3.846570 -0.446193 12.994200 -0.242716 4.980390 -92.529900 8.089120 -72.567600 5.348090 -0.000007 -0.000001 -74.511100 20.565400 2.816640 24.328600 0.000019 0.000005 11.755800 25.268900 -25.990200 22.291600 -0.000001 0.000005 -2.896120 5.002880 7.258160 12.994500 -0.242716 -4.980390 88.376400 4.982380 -71.925600 -5.348130 -0.000001 -0.000004 -61.321000 16.674300 -9.856990 -24.328900 0.000322 -0.000009 1.306030 6.903150 -10.748300 -22.291500 -0.000108 -0.000004 -14.629200 5.227660 2.016680 -2.192480 -6.469440 -0.000000 -170.813000 -6.227180 2.275600 39.081100 -0.000007 -0.000012 0.010795 -0.036636 16.418300 40.985400 -0.000006 -0.000013 -1.925830 13.954500 -69.910600 11.754300 -0.000000 0.000003 -0.001519 0.190155 -8.862580 -2.192510 6.469440 -0.000001 179.971000 6.169370 -175.945000 -39.081100 -0.002282 -0.040193 0.038406 -0.140076 14.057400 -40.985400 0.000008 0.000006 -2.940070 4.469910 -70.393700 -11.754300 -0.000006 -0.000006 -0.010538 0.275283 -5.388260
0.000000 0.000000 0.000000 0.000000 0.000000 -0.000000 -3.093430 92.684100 2.440000 87.429900 0.446486 3.393120 15.735700 0.000005 -0.000001 72.646700 86.533100 -71.343700 8.984550 -0.406207 -0.000000 -1.121860 -2.168720 2.583990 16.377300 -0.000001 -0.000001 1.313770 1.962140 -2.025590 6.456720 -0.000001 -0.000000 4.252600 3.880250 -1.226340 12.994200 -0.242716 4.980390 -92.582500 8.283570 -72.616600 5.348090 -0.000007 -0.000001 -74.116500 18.369300 3.094500 24.328600 0.000019 0.000005 11.512800 24.726100 -25.964100 22.291600 -0.000001 0.000005 -2.276960 4.994700 7.431560 12.994500 -0.242716 -4.980390 88.374000 4.919560 -71.685000 -5.348130 -0.000001 -0.000004 -57.368300 10.069800 -11.821500 -24.328900 0.000322 -0.000009 1.062460 7.053650 -8.596450 -22.291500 -0.000108 -0.000004 -13.879700 5.207280 2.535600 -2.192480 -6.469440 -0.000000 -170.931000 -6.771640 2.478160 39.081100 -0.000007 -0.000012 0.010308 -0.034741 16.526400 40.985400 -0.000006 -0.000013 -1.636660 14.307600 -70.019500 11.754300 -0.000000 0.000003 -0.001502 0.189925 -8.871920 -2.192510 6.469440 -0.000001 179.666000 6.200270 -175.698000 -39.081100 -0.002282 -0.040193 0.034685 -0.126036 13.969400 -40.985400 0.000008 0.000006 -3.287670 4.737070 -70.341900 -11.754300 -0.000006 -0.000006 -0.010543 0.275321 -5.386690
